<svg width="176" height="128" viewBox="0 0 176 128" fill="none" xmlns="http://www.w3.org/2000/svg">
<path d="M172.194 17.2604L64.4257 125.028C63.4871 125.97 62.3718 126.718 61.1437 127.228C59.9157 127.737 58.599 128 57.2693 128C55.9395 128 54.6229 127.737 53.3948 127.228C52.1668 126.718 51.0514 125.97 50.1128 125.028L2.96431 77.8799C2.02451 76.9401 1.27901 75.8244 0.770398 74.5965C0.261781 73.3686 1.40041e-08 72.0525 0 70.7234C-1.40041e-08 69.3944 0.261781 68.0783 0.770398 66.8504C1.27901 65.6225 2.02451 64.5068 2.96431 63.567C3.90411 62.6272 5.01981 61.8817 6.24772 61.3731C7.47563 60.8644 8.7917 60.6027 10.1208 60.6027C11.4499 60.6027 12.7659 60.8644 13.9938 61.3731C15.2217 61.8817 16.3374 62.6272 17.2772 63.567L57.2777 103.567L157.898 2.9643C159.796 1.06629 162.37 0 165.054 0C167.738 0 170.313 1.06629 172.211 2.9643C174.109 4.86232 175.175 7.43658 175.175 10.1208C175.175 12.805 174.109 15.3792 172.211 17.2772L172.194 17.2604Z" fill="white"/>
</svg>
