<svg width="128" height="128" viewBox="0 0 128 128" fill="none" xmlns="http://www.w3.org/2000/svg">
<path fill-rule="evenodd" clip-rule="evenodd" d="M64 128C99.3462 128 128 99.3462 128 64C128 28.6538 99.3462 0 64 0C28.6538 0 0 28.6538 0 64C0 99.3462 28.6538 128 64 128ZM92.4068 33.9526C95.0103 36.5562 95.0103 40.7772 92.4068 43.3807L73.1208 62.6667L93.4329 82.9787C96.0364 85.5822 96.0364 89.8034 93.4329 92.4067C90.8294 95.0103 86.6083 95.0103 84.0048 92.4067L63.6927 72.0947L43.3807 92.4067C40.7772 95.0103 36.5561 95.0103 33.9526 92.4067C31.3491 89.8032 31.3491 85.5822 33.9526 82.9787L54.2646 62.6667L34.9787 43.3807C32.3752 40.7772 32.3752 36.5562 34.9787 33.9526C37.5822 31.3491 41.8033 31.3491 44.4068 33.9526L63.6927 53.2386L82.9787 33.9526C85.5822 31.3491 89.8033 31.3491 92.4068 33.9526Z" fill="white"/>
</svg>
