<?xml version="1.0" encoding="UTF-8"?>
<svg id="Layer_1" data-name="Layer 1" xmlns="http://www.w3.org/2000/svg" viewBox="0 0 64 64">
  <defs>
    <style>
      .cls-1 {
        fill: #fff;
      }
    </style>
  </defs>
  <path class="cls-1" d="m40.48,32l19.76-19.76c2.34-2.34,2.34-6.14,0-8.49-2.34-2.34-6.14-2.34-8.48,0l-19.76,19.76L12.24,3.76c-2.34-2.34-6.14-2.34-8.49,0s-2.34,6.14,0,8.49l19.76,19.76L3.76,51.76c-2.34,2.34-2.34,6.14,0,8.48,1.17,1.17,2.71,1.76,4.24,1.76s3.07-.59,4.24-1.76l19.76-19.76,19.76,19.76c1.17,1.17,2.71,1.76,4.24,1.76s3.07-.59,4.24-1.76c2.34-2.34,2.34-6.14,0-8.48l-19.76-19.76Z"/>
</svg>